<?xml version="1.0" encoding="utf-8"?>
<svg viewBox="-53 1 511 511.99906" height="511pt" width="511pt" xmlns="http://www.w3.org/2000/svg" fill="#fff">
  <path d="M 276.41 3.957 C 274.063 1.484 270.844 0 267.508 0 L 67.777 0 C 30.922 0 0.5 30.301 0.5 67.152 L 0.5 444.844 C 0.5 481.699 30.922 512 67.777 512 L 338.863 512 C 375.719 512 406.141 481.699 406.141 444.844 L 406.141 144.941 C 406.141 141.727 404.656 138.637 402.555 136.285 Z M 279.996 43.656 L 364.465 132.328 L 309.555 132.328 C 293.23 132.328 279.996 119.219 279.996 102.895 Z M 338.863 487.266 L 67.777 487.266 C 44.652 487.266 25.234 468.098 25.234 444.844 L 25.234 67.152 C 25.234 44.027 44.527 24.734 67.777 24.734 L 255.262 24.734 L 255.262 102.895 C 255.262 132.945 279.504 157.062 309.555 157.062 L 381.406 157.062 L 381.406 444.844 C 381.406 468.098 362.113 487.266 338.863 487.266 Z M 338.863 487.266"/>
  <path d="M 304.219 412.934 L 100.656 412.934 C 93.855 412.934 88.289 418.496 88.289 425.301 C 88.289 432.102 93.855 437.668 100.656 437.668 L 304.344 437.668 C 311.144 437.668 316.711 432.102 316.711 425.301 C 316.711 418.496 311.144 412.934 304.219 412.934 Z M 304.219 412.934"/>
  <path d="M 304.219 205.451 L 100.656 205.451 C 93.855 205.451 88.289 211.013 88.289 217.818 C 88.289 224.619 93.855 230.185 100.656 230.185 L 304.344 230.185 C 311.144 230.185 316.711 224.619 316.711 217.818 C 316.711 211.013 311.144 205.451 304.219 205.451 Z M 304.219 205.451"/>
  <path d="M 304.219 274.612 L 100.656 274.612 C 93.855 274.612 88.289 280.174 88.289 286.979 C 88.289 293.78 93.855 299.346 100.656 299.346 L 304.344 299.346 C 311.144 299.346 316.711 293.78 316.711 286.979 C 316.711 280.174 311.144 274.612 304.219 274.612 Z M 304.219 274.612"/>
  <path d="M 304.219 343.773 L 100.656 343.773 C 93.855 343.773 88.289 349.335 88.289 356.14 C 88.289 362.941 93.855 368.507 100.656 368.507 L 304.344 368.507 C 311.144 368.507 316.711 362.941 316.711 356.14 C 316.711 349.335 311.144 343.773 304.219 343.773 Z M 304.219 343.773"/>
</svg>